HIERARCHY
ROOT joint_Root
{
	OFFSET 0.0 0.0 0.0
	CHANNELS 6 Xposition Yposition Zposition Zrotation Xrotation Yrotation 
	JOINT Hips
	{
		OFFSET -17.1583 93.1646 452.98
		CHANNELS 6 Xposition Yposition Zposition Zrotation Xrotation Yrotation 
		JOINT Spine
		{
			OFFSET 15.7357 0.0 0.0
			CHANNELS 6 Xposition Yposition Zposition Zrotation Xrotation Yrotation 
			JOINT Chest
			{
				OFFSET 8.98455 -0.406207 0.0
				CHANNELS 6 Xposition Yposition Zposition Zrotation Xrotation Yrotation 
				JOINT Neck
				{
					OFFSET 16.3773 0.0 0.0
					CHANNELS 6 Xposition Yposition Zposition Zrotation Xrotation Yrotation 
					JOINT Head
					{
						OFFSET 6.45672 0.0 0.0
						CHANNELS 6 Xposition Yposition Zposition Zrotation Xrotation Yrotation 
						End Site
						{
							OFFSET 0.0 0.0 0.0
						}
					}
				}
				JOINT Shoulder_L
				{
					OFFSET 12.9942 -0.242716 4.98039
					CHANNELS 6 Xposition Yposition Zposition Zrotation Xrotation Yrotation 
					JOINT UpperArm_L
					{
						OFFSET 5.34809 0.0 0.0
						CHANNELS 6 Xposition Yposition Zposition Zrotation Xrotation Yrotation 
						JOINT LowerArm_L
						{
							OFFSET 24.3286 1.87007e-05 0.0
							CHANNELS 6 Xposition Yposition Zposition Zrotation Xrotation Yrotation 
							JOINT Hand_L
							{
								OFFSET 22.2916 0.0 0.0
								CHANNELS 6 Xposition Yposition Zposition Zrotation Xrotation Yrotation 
								End Site
								{
									OFFSET 0.0 0.0 0.0
								}
							}
						}
					}
				}
				JOINT Shoulder_R
				{
					OFFSET 12.9945 -0.242716 -4.98039
					CHANNELS 6 Xposition Yposition Zposition Zrotation Xrotation Yrotation 
					JOINT UpperArm_R
					{
						OFFSET -5.34813 0.0 0.0
						CHANNELS 6 Xposition Yposition Zposition Zrotation Xrotation Yrotation 
						JOINT LowerArm_R
						{
							OFFSET -24.3289 0.000322201 0.0
							CHANNELS 6 Xposition Yposition Zposition Zrotation Xrotation Yrotation 
							JOINT Hand_R
							{
								OFFSET -22.2915 -0.000108084 0.0
								CHANNELS 6 Xposition Yposition Zposition Zrotation Xrotation Yrotation 
								End Site
								{
									OFFSET 0.0 0.0 0.0
								}
							}
						}
					}
				}
			}
		}
		JOINT UpperLeg_L
		{
			OFFSET -2.19248 -6.46944 0.0
			CHANNELS 6 Xposition Yposition Zposition Zrotation Xrotation Yrotation 
			JOINT LowerLeg_L
			{
				OFFSET 39.0811 0.0 -1.23785e-05
				CHANNELS 6 Xposition Yposition Zposition Zrotation Xrotation Yrotation 
				JOINT Foot_L
				{
					OFFSET 40.9854 0.0 -1.26872e-05
					CHANNELS 6 Xposition Yposition Zposition Zrotation Xrotation Yrotation 
					JOINT Toes_L
					{
						OFFSET 11.7543 0.0 0.0
						CHANNELS 6 Xposition Yposition Zposition Zrotation Xrotation Yrotation 
						End Site
						{
							OFFSET 0.0 0.0 0.0
						}
					}
				}
			}
		}
		JOINT UpperLeg_R
		{
			OFFSET -2.19251 6.46944 0.0
			CHANNELS 6 Xposition Yposition Zposition Zrotation Xrotation Yrotation 
			JOINT LowerLeg_R
			{
				OFFSET -39.0811 -0.00228153 -0.0401928
				CHANNELS 6 Xposition Yposition Zposition Zrotation Xrotation Yrotation 
				JOINT Foot_R
				{
					OFFSET -40.9854 0.0 0.0
					CHANNELS 6 Xposition Yposition Zposition Zrotation Xrotation Yrotation 
					JOINT Toes_R
					{
						OFFSET -11.7543 0.0 0.0
						CHANNELS 6 Xposition Yposition Zposition Zrotation Xrotation Yrotation 
						End Site
						{
							OFFSET 0.0 0.0 0.0
						}
					}
				}
			}
		}
	}
}
MOTION
Frames:	5
Frame Time:	0.0333333
0.000000 0.000000 0.000000 0.000000 0.000000 -0.000000 -2.577250 92.453500 -0.631754 88.165600 3.940630 6.796560 15.735700 0.000005 -0.000001 84.568300 85.593300 -83.719800 8.984550 -0.406207 -0.000000 1.015080 -0.883900 1.703430 16.377300 -0.000001 -0.000001 10.758500 1.278210 -3.092820 6.456720 -0.000001 -0.000000 -3.707870 0.311954 -1.387710 12.994200 -0.242716 4.980390 -93.642500 10.214300 -70.252500 5.348090 -0.000007 -0.000001 -70.073800 29.294900 -1.989150 24.328600 0.000019 0.000005 11.896200 28.865800 -23.575100 22.291600 -0.000001 0.000005 -5.077080 5.100300 5.106820 12.994500 -0.242716 -4.980390 87.420500 7.084470 -69.933900 -5.348130 -0.000001 -0.000004 -69.316900 28.349500 -4.657530 -24.328900 0.000322 -0.000009 1.048470 3.408960 -17.123400 -22.291500 -0.000108 -0.000004 -10.099700 5.116910 4.723580 -2.192480 -6.469440 -0.000000 -177.442000 0.666634 1.570590 39.081100 -0.000007 -0.000012 0.223054 -0.547125 22.180300 40.985400 -0.000006 -0.000013 2.018690 7.397950 -72.064500 11.754300 -0.000000 0.000003 -0.001096 0.184396 -9.096690 -2.192510 6.469440 -0.000001 -176.218000 12.767700 -173.320000 -39.081100 -0.002282 -0.040193 0.096316 -0.348346 14.945900 -40.985400 0.000008 0.000006 3.823780 3.300380 -70.897400 -11.754300 -0.000006 -0.000006 -0.010016 0.271428 -5.545970
0.000000 0.000000 0.000000 0.000000 0.000000 -0.000000 -2.610760 92.477200 -0.726269 88.084000 3.988490 6.654750 15.735700 0.000005 -0.000001 84.566000 85.593800 -83.690700 8.984550 -0.406207 -0.000000 1.014310 -0.885748 1.757040 16.377300 -0.000001 -0.000001 10.587500 1.175420 -2.971960 6.456720 -0.000001 -0.000000 -3.922580 0.193426 -1.259410 12.994200 -0.242716 4.980390 -93.641900 10.240100 -70.301000 5.348090 -0.000007 -0.000001 -70.093400 29.328600 -2.054190 24.328600 0.000019 0.000005 11.864700 28.727300 -23.610200 22.291600 -0.000001 0.000005 -5.028940 5.099750 5.119190 12.994500 -0.242716 -4.980390 87.388900 7.131290 -69.829600 -5.348130 -0.000001 -0.000004 -68.642900 26.889000 -4.981320 -24.328900 0.000322 -0.000009 1.153430 3.649680 -17.566600 -22.291500 -0.000108 -0.000004 -10.177400 5.122600 4.590910 -2.192480 -6.469440 -0.000000 -177.365000 0.880225 1.352530 39.081100 -0.000007 -0.000012 0.221758 -0.544381 22.164300 40.985400 -0.000006 -0.000013 1.948690 7.266530 -72.000200 11.754300 -0.000000 0.000003 -0.000833 0.180628 -9.249810 -2.192510 6.469440 -0.000001 -176.121000 12.860400 -173.492000 -39.081100 -0.002282 -0.040193 0.090201 -0.327996 14.834400 -40.985400 0.000008 0.000006 3.611190 3.427500 -70.708400 -11.754300 -0.000006 -0.000006 -0.009891 0.270489 -5.584340
0.000000 0.000000 0.000000 0.000000 0.000000 -0.000000 -2.648210 92.490600 -0.851700 88.052300 4.028760 6.507270 15.735700 0.000005 -0.000001 84.611500 85.591300 -83.725200 8.984550 -0.406207 -0.000000 1.019890 -0.879849 1.778930 16.377300 -0.000001 -0.000001 10.379600 1.094400 -2.781190 6.456720 -0.000001 -0.000000 -4.113520 0.064246 -1.191370 12.994200 -0.242716 4.980390 -93.636700 10.225800 -70.302100 5.348090 -0.000007 -0.000001 -70.134900 29.360500 -2.153450 24.328600 0.000019 0.000005 11.911800 28.804900 -23.644100 22.291600 -0.000001 0.000005 -4.908440 5.099060 5.135260 12.994500 -0.242716 -4.980390 87.371800 7.132920 -69.711800 -5.348130 -0.000001 -0.000004 -67.979100 24.558900 -5.142900 -24.328900 0.000322 -0.000009 1.135100 3.376210 -18.613400 -22.291500 -0.000108 -0.000004 -10.031400 5.118360 4.689710 -2.192480 -6.469440 -0.000000 -177.347000 1.054950 1.080890 39.081100 -0.000007 -0.000012 0.222844 -0.545829 22.209000 40.985400 -0.000006 -0.000013 1.887860 7.120570 -71.945600 11.754300 -0.000000 0.000003 -0.000832 0.180620 -9.250130 -2.192510 6.469440 -0.000001 -176.009000 12.862400 -173.697000 -39.081100 -0.002282 -0.040193 0.090509 -0.330928 14.758600 -40.985400 0.000008 0.000006 3.744810 3.404230 -70.640700 -11.754300 -0.000006 -0.000006 -0.009925 0.270742 -5.574030
0.000000 0.000000 0.000000 0.000000 0.000000 -0.000000 -2.684070 92.504600 -0.985776 87.977400 4.048170 6.378500 15.735700 0.000005 -0.000001 84.631400 85.584200 -83.719000 8.984550 -0.406207 -0.000000 1.034570 -0.879550 1.831290 16.377300 -0.000001 -0.000001 10.184500 1.014280 -2.591080 6.456720 -0.000001 -0.000000 -4.377840 -0.094094 -1.020030 12.994200 -0.242716 4.980390 -93.651600 10.242900 -70.257500 5.348090 -0.000007 -0.000001 -70.126400 29.369100 -2.235610 24.328600 0.000019 0.000005 11.887000 28.695700 -23.672000 22.291600 -0.000001 0.000005 -4.945340 5.099940 5.115020 12.994500 -0.242716 -4.980390 87.362900 7.145560 -69.681500 -5.348130 -0.000001 -0.000004 -67.511000 20.380400 -4.808890 -24.328900 0.000322 -0.000009 0.642930 1.705290 -20.732400 -22.291500 -0.000108 -0.000004 -9.737440 5.088720 5.369720 -2.192480 -6.469440 -0.000000 -177.262000 1.115630 0.814036 39.081100 -0.000007 -0.000012 0.227690 -0.555527 22.287300 40.985400 -0.000006 -0.000013 1.860210 7.121040 -71.952400 11.754300 -0.000000 0.000003 -0.000897 0.181559 -9.211970 -2.192510 6.469440 -0.000001 -175.853000 12.807100 -173.933000 -39.081100 -0.002282 -0.040193 0.089076 -0.325909 14.740400 -40.985400 0.000008 0.000006 3.651030 3.346970 -70.536900 -11.754300 -0.000006 -0.000006 -0.010163 0.272517 -5.501400
0.000000 0.000000 0.000000 0.000000 0.000000 -0.000000 -2.716670 92.529900 -1.121870 87.931000 4.106290 6.266120 15.735700 0.000005 -0.000001 84.674900 85.550300 -83.748100 8.984550 -0.406207 -0.000000 1.102880 -0.879444 1.860610 16.377300 -0.000001 -0.000001 9.901760 0.924068 -2.391080 6.456720 -0.000001 -0.000000 -4.638350 -0.288886 -0.740586 12.994200 -0.242716 4.980390 -93.659000 10.287700 -70.299300 5.348090 -0.000007 -0.000001 -70.048900 29.405900 -2.353960 24.328600 0.000019 0.000005 11.832800 28.481100 -23.717900 22.291600 -0.000001 0.000005 -4.848000 5.100720 5.097300 12.994500 -0.242716 -4.980390 87.344900 7.139590 -69.538500 -5.348130 -0.000001 -0.000004 -67.136800 15.314000 -4.211470 -24.328900 0.000322 -0.000009 -0.747149 -1.659980 -24.152800 -22.291500 -0.000108 -0.000004 -9.173660 5.063230 5.943380 -2.192480 -6.469440 -0.000000 -177.234000 1.339810 0.596832 39.081100 -0.000007 -0.000012 0.225103 -0.549980 22.259400 40.985400 -0.000006 -0.000013 1.789420 6.945420 -71.825000 11.754300 -0.000000 0.000003 -0.000665 0.178153 -9.350380 -2.192510 6.469440 -0.000001 -175.797000 12.968200 -174.116000 -39.081100 -0.002282 -0.040193 0.084323 -0.309764 14.652800 -40.985400 0.000008 0.000006 3.531740 3.477620 -70.325000 -11.754300 -0.000006 -0.000006 -0.009853 0.270201 -5.596150
